# xmcd
#
# Track frame offsets: 
#        150
#        19616
#        34533
#        50742
#        64541
#        89543
#        106557
#        127432
#        146527
#        157702
#
# Disc length: 2368 seconds
#
# Revision: 3
# Processed by: cddbd v1.5.2PL0 Copyright (c) Steve Scherf et al.
# Submitted via: ExactAudioCopyFreeDBPlugin 1.0
#
DISCID=7b093e0a
DTITLE=Emmylou Harris - 1981 - Cimarron
DYEAR=1981
DGENRE=CountryRock
TTITLE0=Rose Of Cimarron
TTITLE1=Spanish Is A Loving Tongue [with Fayssoux Starling]
TTITLE2=If I Needed You [with Don Williams]
TTITLE3=Another Lonesome Morning
TTITLE4=The Last Cheater's Waltz
TTITLE5=Born To Run
TTITLE6=The Price You Pay
TTITLE7=Son Of A Rotten Gambler
TTITLE8=Tennessee Waltz
TTITLE9=Tennessee Rose
EXTD=
EXTT0=
EXTT1=
EXTT2=
EXTT3=
EXTT4=
EXTT5=
EXTT6=
EXTT7=
EXTT8=
EXTT9=
PLAYORDER=
